<svg width="37" height="33" viewBox="0 0 37 33" fill="none" xmlns="http://www.w3.org/2000/svg">
<path d="M34.9452 32.9133C33.1358 32.948 31.3218 32.9202 29.51 32.9202C27.6983 32.9225 25.8865 32.9457 24.0748 32.9156C22.0548 32.8832 21.4231 31.8188 22.4227 30.0672C24.2113 26.9296 26.0323 23.8106 27.881 20.7077C28.883 19.0232 29.9982 19.0116 31.014 20.6938C32.8998 23.8198 34.7555 26.9667 36.5649 30.1366C37.5183 31.8049 36.8727 32.8763 34.9452 32.9133Z" fill="white"/>
<path d="M24.5722 13.3659C21.2982 19.1899 17.994 24.9976 14.6667 30.7915C13.8036 32.2978 12.3412 32.8647 10.6753 32.911C9.24989 32.9504 7.82226 32.9203 6.39695 32.9203C4.93226 32.9226 3.46525 32.9527 2.00294 32.9133C0.147222 32.8647 -0.5053 31.7842 0.410977 30.1622C5.0179 22.0012 9.65482 13.8564 14.2848 5.70703C15.1595 4.17062 16.0133 2.62265 16.9343 1.11402C17.8251 -0.346026 19.019 -0.383042 19.8867 1.07468C21.4995 3.7819 23.0498 6.52381 24.5746 9.27962C25.3081 10.6101 25.315 12.0447 24.5722 13.3659Z" fill="white"/>
</svg>
