<svg width="27" height="43" viewBox="0 0 27 43" fill="none" xmlns="http://www.w3.org/2000/svg">
<path d="M10.7903 0V5.36829H6.76404C3.11361 5.36829 0.0536829 8.42821 0.0536829 12.0787V14.7628C0.0536829 18.4132 2.41573 21.4195 5.90512 22.3321L19.6479 25.8752C20.3995 26.0899 21.4732 27.432 21.4732 28.2372V30.9213C21.4732 31.6729 20.8826 32.2634 20.1311 32.2634H6.71036C6.06617 32.2634 5.58302 32.0487 5.36829 31.9413V26.8951H0V32.2634C0 34.0886 1.07366 35.6454 2.36205 36.4507C3.59675 37.3096 5.15356 37.6317 6.71036 37.6317H10.7366V43H16.1049V37.6317H20.1311C23.8352 37.6317 26.8414 34.6255 26.8414 30.9213V28.2372C26.8414 24.5868 24.4794 21.5805 20.99 20.6679L7.24719 17.1248C6.49563 16.9101 5.42197 15.568 5.42197 14.7628V12.0787C5.42197 11.3271 6.01248 10.7366 6.76404 10.7366H20.1848C20.7753 10.7366 21.3121 10.9513 21.5268 11.0587V16.1049H26.8951V10.7366C26.8951 8.91136 25.8215 7.35456 24.5331 6.54931C23.2984 5.69039 21.7416 5.36829 20.1848 5.36829H16.1586V0H10.7903V0Z" fill="white"/>
</svg>
