<svg width="30" height="19" viewBox="0 0 30 19" fill="none" xmlns="http://www.w3.org/2000/svg">
<path d="M30 6.98591C30 7.2609 29.753 7.4841 29.448 7.4841C29.375 7.4841 29.3054 7.47118 29.242 7.44787C29.083 7.44657 28.9152 7.41292 28.7685 7.41488C27.133 7.43817 25.4969 7.45241 23.8629 7.41877C23.1997 7.40518 22.5399 7.26153 21.8863 7.17806C21.8194 7.53004 21.786 7.89626 21.6796 8.24306C21.189 9.83604 19.6368 10.4513 18.526 10.5251C18.348 10.5374 18.0928 10.4617 18.0007 10.3401C17.9359 10.2553 18.0457 9.99068 18.1521 9.86128C18.5022 9.43616 18.7669 8.97936 18.8494 8.44364C18.8801 8.24565 18.8767 8.03344 18.8378 7.83674C18.73 7.2887 18.6188 7.20719 18.0512 7.24731C15.5772 7.42265 13.2145 7.98295 11.1703 9.36306C9.25858 10.6539 7.76643 12.3342 6.60314 14.2688C6.43666 14.5457 6.33637 14.8576 6.20878 15.1448C6.48647 15.3454 6.75529 15.4943 6.96338 15.6981C7.77394 16.4952 7.91653 17.478 7.76575 18.5229C7.72822 18.7824 7.57471 18.8174 7.36457 18.6388C7.27246 18.5605 7.18035 18.4712 7.12167 18.3696C6.69729 17.6333 6.00614 17.2625 5.16693 17.1759C3.83716 17.0387 2.53332 17.159 1.31612 17.7433C1.06368 17.8643 0.83648 18.0325 0.583351 18.1522C0.431882 18.224 0.252442 18.2441 0.0852854 18.2875C0.0566265 18.2538 0.0286547 18.2202 0 18.1865C0.0689113 18.0222 0.115985 17.8455 0.210823 17.6967C1.14351 16.2293 2.55992 15.3946 4.26222 14.9514C4.4867 14.8932 4.56038 14.8149 4.58631 14.5942C4.93086 11.605 5.86627 8.80661 7.63475 6.28777C8.79872 4.62943 10.28 3.28234 12.1269 2.26265C12.0116 1.79419 11.7632 1.39887 11.3907 1.09542C11.0346 0.804891 10.6307 0.566143 10.1701 0.251036C10.3707 0.170821 10.5099 0.0789491 10.6579 0.0621101C12.3541 -0.128111 13.9588 0.100938 15.4251 0.995111C15.5711 1.08376 15.8065 1.09412 15.9873 1.06692C18.8556 0.636659 21.6393 0.903239 24.2702 2.08794C25.2158 2.51369 26.083 3.1083 26.9447 3.68092C27.5533 4.08594 27.9102 4.70579 28.1633 5.36251C28.2486 5.58379 28.368 5.71645 28.6013 5.80314C29.07 5.97718 29.5074 6.20949 29.8062 6.6061C29.9249 6.69798 30 6.83386 30 6.98591Z" fill="white"/>
</svg>
