<svg width="18" height="20" viewBox="0 0 18 20" fill="none" xmlns="http://www.w3.org/2000/svg">
<path d="M0.474407 0C0.19975 0 0 0.19975 0 0.474407V8.73908C0 9.4382 0.549313 9.98752 1.24844 9.98752H16.2297C16.9288 9.98752 17.4782 9.4382 17.4782 8.73908V0.474407C17.4782 0.19975 17.2784 0 17.0037 0H0.449438L0.474407 0ZM0 12.2597V19.5256C0 19.8002 0.19975 20 0.474407 20H17.0287C17.3034 20 17.5031 19.8002 17.5031 19.5256V12.2597C17.1036 12.4095 16.7041 12.4844 16.2547 12.4844H1.27341C0.82397 12.4844 0.424469 12.3845 0.0249688 12.2597H0ZM13.7328 14.9813C14.432 14.9813 14.9813 15.5306 14.9813 16.2297C14.9813 16.9288 14.432 17.4782 13.7328 17.4782C13.0337 17.4782 12.4844 16.9288 12.4844 16.2297C12.4844 15.5306 13.0337 14.9813 13.7328 14.9813Z" fill="white"/>
</svg>
