<svg width="28" height="29" viewBox="0 0 28 29" fill="none" xmlns="http://www.w3.org/2000/svg">
<path d="M23.1066 16.8852C23.0077 16.657 22.7188 16.3087 22.4357 16.1221C21.7157 15.6478 21.2801 15.0177 21.338 14.1309C23.1445 14.4022 24.1398 15.4896 23.95 16.8993C24.0235 17.2377 23.9107 17.6587 23.759 17.9743C23.4077 19.0545 22.752 19.9243 22.0119 20.7579C21.7006 21.1086 21.3824 21.1931 20.9582 21.0678C20.5021 20.933 20.0478 20.7924 19.5895 20.6649C17.9908 20.22 16.3672 19.9614 14.6968 20.1085C14.3806 20.1363 14.0698 20.2199 13.6669 20.2943C14.3422 20.8595 15.0126 21.1718 15.7348 21.3768C17.0946 21.7626 18.4579 22.1376 19.8253 22.4977C20.1034 22.5709 20.2214 22.6833 20.1673 22.9573C20.1433 23.0787 20.1391 23.2041 20.1312 23.3279C20.0367 24.8144 19.9383 26.3007 19.8526 27.7876C19.8286 28.205 19.9567 28.586 20.3064 29C20.7133 28.0717 21.188 27.235 21.4457 26.3406C21.8025 25.1026 22.0368 23.8271 22.2422 22.5556C22.3478 21.9015 22.5878 21.4412 23.1539 21.0238C24.0401 20.3703 24.8717 19.6317 25.64 18.8506C26.9699 17.4984 27.8068 15.8902 27.971 14.0118C28.1928 11.4756 27.1323 9.44613 25.1217 7.89196C24.1844 7.16748 23.0962 6.62172 22.0664 6.01046C21.1126 5.4443 20.2167 4.82849 19.6815 3.83837C18.9394 2.46532 19.0522 1.51 20.0969 0.352436C20.1716 0.269659 20.2124 0.158587 20.2969 0.0121641C19.4039 -0.04239 18.6241 0.0854121 17.8881 0.418701C16.2793 1.14733 14.9613 2.22575 13.8926 3.58204C13.127 4.55369 12.1487 5.17691 10.9104 5.44543C10.472 5.5405 10.0393 5.68037 9.62218 5.84302C6.63456 7.00822 4.1464 8.85051 1.98149 11.1162C1.2116 11.9219 0.526253 12.7902 0.0711224 13.8102C-0.0645958 14.1143 -0.00715546 14.2978 0.252713 14.5075C0.853877 14.9927 1.53298 15.2902 2.30209 15.4097C3.62976 15.6159 4.92437 15.443 6.20815 15.1077C6.32371 15.0775 6.47646 15.1373 6.59983 15.1846C6.91724 15.3061 7.21811 15.5187 7.54346 15.5579C8.02412 15.6159 8.53525 15.6258 9.00719 15.533C10.9767 15.1457 12.938 14.7186 14.8979 14.2878C15.1406 14.2344 15.2907 14.2634 15.4828 14.4149C16.2306 15.0048 16.9719 15.6079 17.7649 16.1379C19.3987 17.2295 21.1907 17.8539 23.2211 17.6517C23.282 17.6456 23.343 17.6386 23.4044 17.6313" fill="white"/>
</svg>
