<svg width="29" height="28" viewBox="0 0 29 28" fill="none" xmlns="http://www.w3.org/2000/svg">
<path d="M23.9696 4.32777C23.9326 2.99021 24.8242 2.40705 25.7049 1.81861C26.3265 1.40323 26.9425 0.992048 27.338 0.305212C27.4273 0.149984 27.7143 -0.0391017 27.8239 0.0070766C28.036 0.0964366 28.3024 0.317683 28.3435 0.526939C28.5721 1.69047 28.4188 2.7945 27.6389 3.72617C27.2956 4.13623 26.9132 4.51101 26.5511 4.9044C26.2705 5.20932 26.1407 5.57653 26.2661 5.98052C26.4494 6.57126 26.6383 7.16525 26.8882 7.72768C27.4141 8.91116 28.0606 10.0432 28.5131 11.2542C29.2277 13.1671 29.0982 15.1514 28.4972 17.056C27.423 20.4603 25.6389 23.3771 22.5044 25.1305C21.4548 25.7177 20.2404 25.9897 19.1007 26.404C18.9973 26.4416 18.8897 26.4669 18.7331 26.5129C18.8718 26.7299 19.0194 26.8955 19.0913 27.091C19.1667 27.2962 19.2613 27.5826 19.1787 27.7365C19.0957 27.891 18.8035 28.0035 18.6053 27.9999C17.795 27.9853 17.0632 27.6714 16.4127 27.1934C16.0202 26.905 15.6157 26.7779 15.142 26.7539C13.3838 26.6648 11.7113 26.2206 10.1395 25.3893C10.0704 25.3527 9.99439 25.3303 9.81942 25.2605C9.81942 25.7574 9.84259 26.1907 9.8096 26.6194C9.79323 26.832 9.72704 27.1104 9.58389 27.2206C9.46895 27.3092 9.14347 27.2619 9.01703 27.1487C8.61232 26.7861 8.19526 26.408 7.89864 25.9547C7.57195 25.4556 7.26797 24.891 7.14265 24.3113C6.93417 23.3468 6.46333 22.6169 5.82066 21.9052C4.32878 20.2532 3.28848 18.2905 2.37259 16.2449C1.7531 14.8614 1.02729 13.5288 0.351274 12.1723C0.246395 11.9618 0.126946 11.7534 0.0604458 11.5293C-0.0925187 11.014 0.0405303 10.6768 0.508809 10.4383C0.905383 10.2364 1.18439 10.0344 1.2493 9.49338C1.32032 8.90136 1.84315 8.62415 2.3758 8.48942C3.582 8.18431 4.82184 8.14934 5.96779 8.61252C8.10144 9.47492 10.2244 10.3873 12.2744 11.4403C13.2217 11.9269 14.0024 12.7742 14.8309 13.4922C15.9667 14.4766 17.1885 15.2454 18.6732 15.5457C21.3789 16.0929 24.6582 14.5982 25.0182 10.4461C25.0687 9.86386 25.0349 9.24812 24.9056 8.68076C24.6929 7.7475 24.1244 7.12746 23.1396 7.03022C22.2257 6.93999 21.3098 6.86526 20.3989 6.74927C19.3037 6.6098 18.5333 5.9598 18.0154 4.98302C17.7124 4.41162 17.8781 4.20442 18.5089 4.17414C19.2544 4.13834 20.0166 4.11895 20.7364 3.94068C22.3359 3.54457 22.4494 3.51818 23.9696 4.32777Z" fill="white"/>
</svg>
